<?xml version="1.0" encoding="utf-8"?>
<!-- Generator: Adobe Illustrator 16.0.0, SVG Export Plug-In . SVG Version: 6.00 Build 0)  -->
<!DOCTYPE svg PUBLIC "-//W3C//DTD SVG 1.1//EN" "http://www.w3.org/Graphics/SVG/1.1/DTD/svg11.dtd">
<svg version="1.1" id="Layer_1" xmlns="http://www.w3.org/2000/svg" xmlns:xlink="http://www.w3.org/1999/xlink" x="0px" y="0px"
	 width="1080px" height="1080px" viewBox="0 0 1080 1080" enable-background="new 0 0 1080 1080" xml:space="preserve">
<line fill="none" stroke="#2C98D4" stroke-width="64" stroke-miterlimit="10" x1="301.053" y1="408.335" x2="200.334" y2="505.806"/>
<line fill="none" stroke="#2C98D4" stroke-width="64" stroke-miterlimit="10" x1="194.662" y1="568.705" x2="318" y2="688.064"/>
<path fill="#2C98D4" stroke="#2C98D4" stroke-miterlimit="10" d="M165,447c-51.362,0-93,41.638-93,93s41.638,93,93,93
	s93-41.638,93-93S216.362,447,165,447z M158.327,574.484c-27.365-0.489-53.993-33.984-53.993-33.984s28.167-34.125,56.334-34
	c28.167,0.125,56.333,34,56.333,34S187.252,575.002,158.327,574.484z"/>
<circle fill="none" stroke="#2C98D4" stroke-width="10" stroke-miterlimit="10" cx="160.482" cy="540" r="31.333"/>
<path fill="#2C98D4" stroke="#2C98D4" stroke-miterlimit="10" d="M348,627c-51.362,0-93,41.638-93,93s41.638,93,93,93
	s93-41.638,93-93S399.362,627,348,627z M352.75,757.836c-52.75,0-58.75-35.167-58.75-35.167h117.5
	C411.5,722.669,405.5,757.836,352.75,757.836z M355,717.667L297.75,721h-4c0,0,16.167-13.25,24.75-25.25s31.5-14.25,36.25,4.5
	C359,681.75,382,682.5,393,698s18.75,23,18.75,23L355,717.667z"/>
<path fill="#2C98D4" stroke="#2C98D4" stroke-miterlimit="10" d="M351,267c-51.362,0-93,41.638-93,93s41.638,93,93,93
	s93-41.638,93-93S402.362,267,351,267z M340,432.903c-13.333,0-22.667-13.566-22.667-13.566v-97.333c0,0,3.369-29.333,36.369-29.333
	s47.964,18.418,47.964,54.085S353.333,432.903,340,432.903z"/>
<path fill="none" stroke="#2C98D4" stroke-width="5" stroke-miterlimit="10" d="M345.539,339.38c0,0-5.068,11.979-11.518,7.833
	c-6.45-4.146,1.382-28.104,11.518-33.171c10.136-5.068,26.614-2.043,35.475,9.214c22.982,29.198-31.766,80.496-31.766,80.496"/>
<rect x="318" y="452.08" fill="none" width="687.067" height="175.841"/>
<text transform="matrix(1 0 0 1 318 608.2939)" fill="#2C98D4" font-family="'SegoeScript-Bold'" font-size="203">Senses</text>
</svg>
